<?xml version="1.0" encoding="utf-8"?>
<!-- Generator: Adobe Illustrator 24.0.0, SVG Export Plug-In . SVG Version: 6.00 Build 0)  -->
<svg version="1.1" id="Capa_1" xmlns="http://www.w3.org/2000/svg" xmlns:xlink="http://www.w3.org/1999/xlink" x="0px" y="0px"
	 viewBox="0 0 512 512" style="enable-background:new 0 0 512 512;" xml:space="preserve">
<style type="text/css">
	.st0{fill:#3157DC;}
	.st1{fill:#FFFFFF;}
</style>
<path class="st0" d="M397.9,476.5H115.7c-43.9,0-79.7-35.8-79.7-79.7V114.6c0-43.9,35.8-79.7,79.7-79.7h282.2
	c43.9,0,79.7,35.8,79.7,79.7v282.2C477.7,440.7,441.8,476.5,397.9,476.5z"/>
<g>
	<path class="st1" d="M152.8,395V98h111.4c22.7,0,40.9,3,54.6,9c13.7,6,24.5,15.2,32.2,27.8c7.8,12.5,11.6,25.5,11.6,39.2
		c0,12.7-3.4,24.6-10.3,35.8c-6.9,11.2-17.3,20.2-31.2,27.1c17.9,5.3,31.7,14.2,41.4,27c9.7,12.7,14.5,27.7,14.5,45
		c0,13.9-3,26.8-8.8,38.8c-5.9,11.9-13.2,21.1-21.8,27.7c-8.6,6.5-19.4,11.4-32.5,14.7c-13,3.3-29,4.9-47.9,4.9L152.8,395L152.8,395
		z M192,222.9h64.2c17.4,0,29.9-1.2,37.5-3.4c10-3,17.6-7.9,22.6-14.8c5.1-6.9,7.6-15.5,7.6-25.9c0-9.9-2.3-18.5-7.1-26
		c-4.7-7.5-11.5-12.6-20.2-15.4c-8.8-2.8-23.8-4.1-45.2-4.1H192V222.9z M192,359.9H266c12.7,0,21.6-0.4,26.7-1.4
		c9-1.6,16.6-4.3,22.7-8.1s11.1-9.3,15-16.5c3.9-7.3,5.9-15.6,5.9-25c0-11.1-2.9-20.7-8.5-28.8c-5.6-8.2-13.5-13.9-23.6-17.2
		c-10-3.3-24.5-4.9-43.5-4.9H192L192,359.9L192,359.9z"/>
</g>
</svg>
