<?xml version="1.0" encoding="utf-8"?>
<!-- Generator: Adobe Illustrator 24.0.0, SVG Export Plug-In . SVG Version: 6.00 Build 0)  -->
<svg version="1.1" id="Capa_1" xmlns="http://www.w3.org/2000/svg" xmlns:xlink="http://www.w3.org/1999/xlink" x="0px" y="0px"
	 viewBox="0 0 512 512" style="enable-background:new 0 0 512 512;" xml:space="preserve">
<style type="text/css">
	.st0{fill:#3157DC;}
	.st1{fill:#565959;}
	.st2{fill:#FFFFFF;}
	.st3{fill:#F2AE5A;}
	.st4{fill:#F9DF73;}
	.st5{fill:#6AA2FF;}
</style>
<g>
	<path class="st0" d="M512,256c0,57-18.6,109.7-50.2,152.2c-11.6,15.6-24.9,29.9-39.7,42.5C377.4,489,319.4,512,256,512
		c-36.7,0-71.6-7.7-103.2-21.7c-13.6-6-26.6-13.2-38.9-21.4c-8.4-5.6-16.4-11.7-24-18.2c-14.8-12.6-28.1-26.9-39.7-42.5
		C18.6,365.7,0,313,0,256s18.6-109.7,50.2-152.2C70,77,95,54.2,123.6,36.9C162.2,13.5,207.5,0,256,0c0.3,0,0.7,0,1,0
		c48.1,0.2,93,13.6,131.4,36.8C417,54.2,442,77,461.8,103.8C493.4,146.3,512,199,512,256z"/>
	<path class="st0" d="M476.6,220.6c0,49.1-16.1,94.5-43.2,131.2c-10,13.5-21.5,25.8-34.2,36.7c-38.5,32.9-88.5,52.8-143.2,52.8
		c-31.7,0-61.7-6.7-88.9-18.7c-11.8-5.2-23-11.4-33.5-18.4c-7.2-4.8-14.1-10.1-20.7-15.7c-12.7-10.9-24.2-23.2-34.2-36.7
		c-27.2-36.7-43.2-82.1-43.2-131.2s16.1-94.5,43.2-131.2c17.1-23.1,38.6-42.7,63.3-57.7C175.2,11.6,214.2,0,256,0c0.3,0,0.6,0,0.9,0
		c41.4,0.2,80.2,11.7,113.2,31.8c24.7,14.9,46.2,34.6,63.3,57.7C460.5,126.1,476.6,171.5,476.6,220.6z"/>
	<path class="st1" d="M461.8,74.9v333.3c-11.6,15.6-24.9,29.9-39.7,42.5C377.4,489,319.4,512,256,512c-36.7,0-71.6-7.7-103.2-21.7
		c-13.6-6-26.6-13.2-38.9-21.4c-8.4-5.6-16.4-11.7-24-18.2c-14.8-12.6-28.1-26.9-39.7-42.5V74.9c0-21,17-38,38-38h335.6
		C444.8,36.9,461.8,53.9,461.8,74.9z"/>
	<path class="st2" d="M422.1,146.5v304.3C377.4,489,319.4,512,256,512c-36.7,0-71.6-7.7-103.2-21.7c-13.6-6-26.6-13.2-38.9-21.4
		c-8.4-5.6-16.4-11.7-24-18.2V146.5c0-13.2,10.7-24,24-24h284.3C411.4,122.5,422.1,133.3,422.1,146.5z"/>
	<path class="st3" d="M357.9,47.1v67.3c0,12.6-10.2,22.8-22.8,22.8H176.9c-12.6,0-22.8-10.2-22.8-22.8V47.1
		c0-12.6,10.2-22.8,22.8-22.8h39.8C223.9,9.9,238.8,0,256,0c2.7,0,5.3,0.2,7.8,0.7c12,2.2,22.4,9.2,28.8,19.1
		c0.1,0.1,0.2,0.2,0.2,0.4c0.6,1,1.2,1.9,1.7,2.9c0.2,0.4,0.5,0.9,0.6,1.2h39.8C347.7,24.3,357.9,34.5,357.9,47.1z"/>
	<path class="st4" d="M357.9,47.1v67.3c0,12.6-10.2,22.8-22.8,22.8H192.6c-12.6,0-22.8-10.2-22.8-22.8V47.1
		c0-12.6,10.2-22.8,22.8-22.8h24.2C223.9,9.9,238.8,0,256,0c2.7,0,5.3,0.2,7.8,0.7c12,2.2,22.4,9.2,28.8,19.1
		c0.1,0.1,0.2,0.2,0.2,0.4c0.7,1.1,1.3,2.1,1.7,2.9c0.2,0.4,0.5,0.9,0.6,1.2h39.8C347.7,24.3,357.9,34.5,357.9,47.1z"/>
	<circle class="st1" cx="256" cy="35.8" r="15.2"/>
	<path class="st3" d="M312.4,103.7H199.6c-6.1,0-11-4.9-11-11l0,0c0-6.1,4.9-11,11-11h112.8c6.1,0,11,4.9,11,11l0,0
		C323.4,98.8,318.5,103.7,312.4,103.7z"/>
	<path class="st5" d="M190.2,264.6h-65.8c-5.8,0-10.4-4.7-10.4-10.4v-65.8c0-5.8,4.7-10.4,10.4-10.4h65.8c5.8,0,10.4,4.7,10.4,10.4
		v65.8C200.6,260,195.9,264.6,190.2,264.6z M134.8,243.7h44.9v-44.9h-44.9V243.7z"/>
	<g>
		<path class="st1" d="M295.7,211.4h-65.8c-5.8,0-10.4-4.7-10.4-10.4s4.7-10.4,10.4-10.4h65.8c5.8,0,10.4,4.7,10.4,10.4
			S301.5,211.4,295.7,211.4z"/>
		<path class="st1" d="M377.2,252.1H229.9c-5.8,0-10.4-4.7-10.4-10.4s4.7-10.4,10.4-10.4h147.3c5.8,0,10.4,4.7,10.4,10.4
			S383,252.1,377.2,252.1z"/>
	</g>
	<path class="st5" d="M190.2,377.5h-65.8c-5.8,0-10.4-4.7-10.4-10.4v-65.8c0-5.8,4.7-10.4,10.4-10.4h65.8c5.8,0,10.4,4.7,10.4,10.4
		V367C200.6,372.8,195.9,377.5,190.2,377.5z M134.8,356.6h44.9v-44.9h-44.9V356.6z"/>
	<g>
		<path class="st1" d="M295.7,324.2h-65.8c-5.8,0-10.4-4.7-10.4-10.4s4.7-10.4,10.4-10.4h65.8c5.8,0,10.4,4.7,10.4,10.4
			S301.5,324.2,295.7,324.2z"/>
		<path class="st1" d="M377.2,365H229.9c-5.8,0-10.4-4.7-10.4-10.4s4.7-10.4,10.4-10.4h147.3c5.8,0,10.4,4.7,10.4,10.4
			C387.7,360.3,383,365,377.2,365z"/>
	</g>
	<path class="st5" d="M190.2,403.6h-65.8c-5.8,0-10.4,4.7-10.4,10.4V469c12.3,8.2,25.3,15.4,38.9,21.4h37.4
		c5.8,0,10.4-4.7,10.4-10.4v-65.8C200.6,408.3,195.9,403.6,190.2,403.6z M179.7,469.4h-44.9v-44.9h44.9V469.4z"/>
	<g>
		<path class="st1" d="M295.7,437h-65.8c-5.8,0-10.4-4.7-10.4-10.4s4.7-10.4,10.4-10.4h65.8c5.8,0,10.4,4.7,10.4,10.4
			S301.5,437,295.7,437z"/>
		<path class="st1" d="M377.2,477.8H229.9c-5.8,0-10.4-4.7-10.4-10.4s4.7-10.4,10.4-10.4h147.3c5.8,0,10.4,4.7,10.4,10.4
			C387.7,473.1,383,477.8,377.2,477.8z"/>
	</g>
	<path class="st1" d="M156.7,368.1c-3.5,0-6.7-1.7-8.7-4.7l-33.4-50.2c-3.2-4.8-1.9-11.3,2.9-14.5s11.3-1.9,14.5,2.9l23.2,34.8
		l29.7-62.7c2.5-5.2,8.7-7.4,13.9-5c5.2,2.5,7.4,8.7,5,13.9l-37.6,79.4c-1.6,3.4-4.9,5.7-8.7,5.9C157.2,368.1,157,368.1,156.7,368.1
		z"/>
</g>
</svg>
