<?xml version="1.0" encoding="utf-8"?>
<!-- Generator: Adobe Illustrator 24.0.0, SVG Export Plug-In . SVG Version: 6.00 Build 0)  -->
<svg version="1.1" id="Layer_3" xmlns="http://www.w3.org/2000/svg" xmlns:xlink="http://www.w3.org/1999/xlink" x="0px" y="0px"
	 viewBox="0 0 211.9 73" style="enable-background:new 0 0 211.9 73;" xml:space="preserve">
<style type="text/css">
	.st0{fill:#FFFFFF;}
	.st1{fill:url(#SVGID_1_);}
	.st2{fill:url(#SVGID_2_);}
	.st3{fill:url(#SVGID_3_);}
	.st4{fill:url(#SVGID_4_);}
	.st5{fill:url(#SVGID_5_);}
	.st6{fill:url(#SVGID_6_);}
</style>
<title>logo</title>
<g>
	<g>
		<path class="st0" d="M62,32.1L39.2,9.3c-1.6-1.6-3.7-2.4-5.9-2.4c-2.2,0-4.3,0.9-5.9,2.4L4.6,32.1c-3.2,3.2-3.2,8.5,0,11.8
			l22.8,22.8c1.6,1.6,3.8,2.4,5.9,2.4c2.1,0,4.3-0.8,5.9-2.4L62,43.9c1.6-1.6,2.4-3.8,2.4-5.9C64.4,35.9,63.6,33.7,62,32.1z
			 M58.6,41.1L36.4,63.3c-0.8,0.8-1.9,1.3-3.1,1.3c-1.2,0-2.3-0.5-3.1-1.3L8,41.1c-1.7-1.7-1.7-4.5,0-6.2l22.2-22.2
			c0.8-0.8,1.9-1.3,3.1-1.3c1.2,0,2.3,0.5,3.1,1.3l22.2,22.2C60.3,36.6,60.3,39.4,58.6,41.1z"/>
		<path class="st0" d="M50,15l0.1,1.9c4.6,0,5.2,3.9,4.5,7.1c-1.2,6.2-6.9,9.9-16.3,17.9c-4.1,3.5-7.8,9.5-3.4,16.9
			c1.7-3.5,7-7.6,15.2-14.7c7.9-6.9,10.6-10.8,10.9-17.4C61.2,20.6,57.2,15.7,50,15z"/>
		<path class="st0" d="M41.4,31.6C28.6,42.7,16.9,48.7,15.9,56.7c-0.8,6.6,4.6,11,10.2,8.7l1.3,1.3c-9,4.8-22.2-2.8-20.6-16.2
			C8.3,37.9,21.9,30.2,35,20.1c7-5.4,10.2-9.1,8.2-12.5c-1-1.8-4-2.3-7.3-0.3c-0.8-0.3-1.7-0.4-2.6-0.4C39.1,2,45.3,4,48,6.5
			C52.3,10.5,54.2,20.6,41.4,31.6z"/>
		<g>
			<linearGradient id="SVGID_1_" gradientUnits="userSpaceOnUse" x1="23.3514" y1="28.4097" x2="43.9889" y2="36.6647">
				<stop  offset="0" style="stop-color:#FFFFFF"/>
				<stop  offset="1" style="stop-color:#FFFFFF;stop-opacity:0"/>
			</linearGradient>
			<path class="st1" d="M35,56.7c-3-6.7,1.1-11.6,4-14c1.5-1.2,2.8-2.4,4.1-3.4c7.1-5.9,11.4-9.5,12.5-15c0.3-1.6,0.6-4.5-1.1-6.5
				c-0.3-0.3-0.5-0.6-0.8-0.8c4,1.6,6.4,5.2,6.2,9.8c-0.2,6-2.6,9.8-10.5,16.6c-1.4,1.2-2.7,2.4-4,3.4C40.5,51,37,54.1,35,56.7z"/>
			<linearGradient id="SVGID_2_" gradientUnits="userSpaceOnUse" x1="-16.3774" y1="25.6429" x2="21.139" y2="33.7986">
				<stop  offset="0" style="stop-color:#FFFFFF"/>
				<stop  offset="1" style="stop-color:#FFFFFF;stop-opacity:0"/>
			</linearGradient>
			<path class="st2" d="M21.6,67c-3.8,0-7.7-1.8-10.3-4.7c-2.8-3.1-4-7.3-3.4-11.7c1.2-10.1,10.6-17,21.4-24.9
				c2.1-1.5,4.3-3.1,6.4-4.8c7-5.4,10.9-9.6,8.5-13.9c-0.7-1.3-2.2-2.1-4-2.1c0.3,0,0.6,0,0.9,0c2.8,0,5.1,1.2,6.2,2.3
				c1.9,1.8,3,4.5,2.9,7.6c-0.1,3.6-1.8,9.4-9.5,16.1c-3.7,3.2-7.5,6.1-10.7,8.6c-8,6.2-14.4,11-15.1,17.1c-0.4,3,0.4,5.7,2.2,7.7
				c1.4,1.6,3.3,2.6,5.4,2.7C22.2,67,21.9,67,21.6,67z"/>
			<g>
				<linearGradient id="SVGID_3_" gradientUnits="userSpaceOnUse" x1="80.8152" y1="39.0495" x2="55.7052" y2="37.5169">
					<stop  offset="0" style="stop-color:#FFFFFF"/>
					<stop  offset="1" style="stop-color:#FFFFFF;stop-opacity:0"/>
				</linearGradient>
				<path class="st3" d="M35,56.7c-3-6.7,1.1-11.6,4-14c1.5-1.2,2.8-2.4,4.1-3.4c7.1-5.9,11.4-9.5,12.5-15c0.3-1.6,0.6-4.5-1.1-6.5
					c-0.3-0.3-0.5-0.6-0.8-0.8c4,1.6,6.4,5.2,6.2,9.8c-0.2,6-2.6,9.8-10.5,16.6c-1.4,1.2-2.7,2.4-4,3.4C40.5,51,37,54.1,35,56.7z"/>
				<linearGradient id="SVGID_4_" gradientUnits="userSpaceOnUse" x1="67.4634" y1="44.487" x2="39.2882" y2="37.8852">
					<stop  offset="0" style="stop-color:#FFFFFF"/>
					<stop  offset="1" style="stop-color:#FFFFFF;stop-opacity:0"/>
				</linearGradient>
				<path class="st4" d="M21.6,67c-3.8,0-7.7-1.8-10.3-4.7c-2.8-3.1-4-7.3-3.4-11.7c1.2-10.1,10.6-17,21.4-24.9
					c2.1-1.5,4.3-3.1,6.4-4.8c7-5.4,10.9-9.6,8.5-13.9c-0.7-1.3-2.2-2.1-4-2.1c0.3,0,0.6,0,0.9,0c2.8,0,5.1,1.2,6.2,2.3
					c1.9,1.8,3,4.5,2.9,7.6c-0.1,3.6-1.8,9.4-9.5,16.1c-3.7,3.2-7.5,6.1-10.7,8.6c-8,6.2-14.4,11-15.1,17.1c-0.4,3,0.4,5.7,2.2,7.7
					c1.4,1.6,3.3,2.6,5.4,2.7C22.2,67,21.9,67,21.6,67z"/>
			</g>
		</g>
	</g>
	<g>
		<linearGradient id="SVGID_5_" gradientUnits="userSpaceOnUse" x1="-21.5559" y1="22.4415" x2="9.7908" y2="31.3231">
			<stop  offset="0" style="stop-color:#FFFFFF"/>
			<stop  offset="1" style="stop-color:#FFFFFF;stop-opacity:0"/>
		</linearGradient>
		<path class="st5" d="M61.4,32.7L38.6,9.9c-1.4-1.4-3.3-2.2-5.3-2.2c-2,0-3.9,0.8-5.3,2.2L5.2,32.7C3.8,34.1,3,36,3,38
			s0.8,3.9,2.2,5.3L28,66.1c1.4,1.4,3.3,2.2,5.3,2.2c2,0,3.9-0.8,5.3-2.2l22.8-22.8c1.4-1.4,2.2-3.3,2.2-5.3
			C63.6,36,62.8,34.1,61.4,32.7z M59.9,41.8L37.1,64.6c-1,1-2.3,1.6-3.8,1.6c-1.4,0-2.8-0.6-3.8-1.6L6.7,41.8
			c-2.1-2.1-2.1-5.5,0-7.6l22.8-22.8c1-1,2.4-1.6,3.8-1.6c1.4,0,2.8,0.6,3.8,1.6l22.8,22.8c1,1,1.6,2.3,1.6,3.8
			C61.5,39.4,60.9,40.8,59.9,41.8z"/>
		<linearGradient id="SVGID_6_" gradientUnits="userSpaceOnUse" x1="87.2643" y1="45.2292" x2="58.6964" y2="41.2834">
			<stop  offset="0" style="stop-color:#FFFFFF"/>
			<stop  offset="1" style="stop-color:#FFFFFF;stop-opacity:0"/>
		</linearGradient>
		<path class="st6" d="M61.4,32.7L38.6,9.9c-1.4-1.4-3.3-2.2-5.3-2.2c-2,0-3.9,0.8-5.3,2.2L5.2,32.7C3.8,34.1,3,36,3,38
			s0.8,3.9,2.2,5.3L28,66.1c1.4,1.4,3.3,2.2,5.3,2.2c2,0,3.9-0.8,5.3-2.2l22.8-22.8c1.4-1.4,2.2-3.3,2.2-5.3
			C63.6,36,62.8,34.1,61.4,32.7z M61.7,32.3L38.9,9.5c-1.4-1.4-3.3-2.2-5.3-2.2c-2,0-3.9,0.8-5.3,2.2L5.5,32.3
			c-1.4,1.4-2.2,3.3-2.2,5.3c0,2,0.8,3.9,2.2,5.3l22.8,22.8c1.4,1.4,3.3,2.2,5.3,2.2c2,0,3.9-0.8,5.3-2.2l22.8-22.8
			c1.4-1.4,2.2-3.3,2.2-5.3C63.9,35.6,63.1,33.7,61.7,32.3z M59.9,41.8L37.1,64.6c-1,1-2.3,1.6-3.8,1.6c-1.4,0-2.8-0.6-3.8-1.6
			L6.7,41.8c-2.1-2.1-2.1-5.5,0-7.6l22.8-22.8c1-1,2.4-1.6,3.8-1.6c1.4,0,2.8,0.6,3.8,1.6l22.8,22.8c1,1,1.6,2.3,1.6,3.8
			C61.5,39.4,60.9,40.8,59.9,41.8z"/>
	</g>
</g>
<g>
	<path class="st0" d="M73.7,47.7c-0.4,0-0.9-0.1-1.4-0.3c-0.5-0.2-0.9-0.4-1.2-0.7c-0.3-0.3-0.5-0.6-0.5-1c0-0.1,0-0.2,0-0.4
		l9.1-29.7c0.2-0.5,0.6-1,1.2-1.2c0.6-0.3,1.2-0.4,1.9-0.4c0.7,0,1.4,0.1,1.9,0.4c0.6,0.3,1,0.7,1.2,1.2l9.1,29.7
		c0.1,0.2,0.1,0.3,0.1,0.4c0,0.4-0.2,0.7-0.5,1c-0.3,0.3-0.7,0.5-1.2,0.7c-0.5,0.2-0.9,0.3-1.4,0.3c-0.4,0-0.7-0.1-1-0.2
		c-0.3-0.2-0.5-0.4-0.6-0.8l-1.9-6.5H77.2l-1.8,6.5c-0.1,0.4-0.3,0.6-0.6,0.8C74.4,47.6,74.1,47.7,73.7,47.7z M78.3,36.3h9.2
		l-4.6-15.7L78.3,36.3z M78.3,36.3l-1.1,3.9h11.4l-1.1-3.9H78.3z"/>
	<path class="st0" d="M100.6,58c-0.7,0-1.2-0.2-1.7-0.5c-0.4-0.3-0.7-0.7-0.7-1.1V27.5c0-0.5,0.2-0.8,0.7-1.1c0.4-0.3,1-0.4,1.6-0.4
		s1.2,0.1,1.6,0.4c0.4,0.3,0.6,0.7,0.6,1.1v1.6c0.5-0.9,1.3-1.7,2.4-2.4c1.1-0.7,2.3-1.1,3.8-1.1c1.5,0,2.9,0.4,4.2,1.2
		c1.3,0.8,2.2,1.9,3,3.3c0.7,1.4,1.1,2.9,1.1,4.6v4.2c0,1.6-0.4,3.1-1.1,4.5c-0.7,1.4-1.7,2.5-3,3.4c-1.2,0.9-2.5,1.3-4,1.3
		c-1.4,0-2.6-0.4-3.7-1.1c-1.1-0.7-1.9-1.5-2.3-2.5v11.9c0,0.4-0.2,0.8-0.7,1.1C101.9,57.8,101.3,58,100.6,58z M107.7,43.8
		c0.8,0,1.6-0.2,2.3-0.7c0.7-0.5,1.3-1.1,1.7-1.8c0.4-0.8,0.7-1.5,0.7-2.3v-4.2c0-0.8-0.2-1.6-0.6-2.3c-0.4-0.7-1-1.3-1.7-1.8
		c-0.7-0.5-1.5-0.7-2.4-0.7c-0.7,0-1.5,0.2-2.2,0.6c-0.7,0.4-1.3,0.9-1.7,1.6c-0.4,0.7-0.7,1.6-0.7,2.6V40c0,0.4,0.2,0.8,0.6,1.4
		c0.4,0.6,0.9,1.1,1.6,1.6C106.1,43.6,106.9,43.8,107.7,43.8z"/>
	<path class="st0" d="M123.8,58c-0.7,0-1.2-0.2-1.7-0.5c-0.4-0.3-0.7-0.7-0.7-1.1V27.5c0-0.5,0.2-0.8,0.7-1.1c0.4-0.3,1-0.4,1.6-0.4
		s1.2,0.1,1.6,0.4c0.4,0.3,0.6,0.7,0.6,1.1v1.6c0.5-0.9,1.3-1.7,2.4-2.4c1.1-0.7,2.3-1.1,3.8-1.1c1.5,0,2.9,0.4,4.2,1.2
		c1.3,0.8,2.2,1.9,3,3.3c0.7,1.4,1.1,2.9,1.1,4.6v4.2c0,1.6-0.4,3.1-1.1,4.5c-0.7,1.4-1.7,2.5-3,3.4c-1.2,0.9-2.6,1.3-4,1.3
		c-1.4,0-2.6-0.4-3.7-1.1c-1.1-0.7-1.9-1.5-2.3-2.5v11.9c0,0.4-0.2,0.8-0.7,1.1C125.1,57.8,124.5,58,123.8,58z M130.9,43.8
		c0.8,0,1.6-0.2,2.3-0.7c0.7-0.5,1.3-1.1,1.7-1.8c0.4-0.8,0.7-1.5,0.7-2.3v-4.2c0-0.8-0.2-1.6-0.6-2.3c-0.4-0.7-1-1.3-1.7-1.8
		c-0.7-0.5-1.5-0.7-2.4-0.7c-0.7,0-1.5,0.2-2.2,0.6c-0.7,0.4-1.3,0.9-1.7,1.6c-0.4,0.7-0.7,1.6-0.7,2.6V40c0,0.4,0.2,0.8,0.6,1.4
		c0.4,0.6,0.9,1.1,1.6,1.6C129.2,43.6,130,43.8,130.9,43.8z"/>
	<path class="st0" d="M152.4,48c-0.7,0-1.3-0.1-1.9-0.4c-0.6-0.3-1-0.7-1.2-1.2l-9.1-29.7c-0.1-0.2-0.1-0.3-0.1-0.4
		c0-0.4,0.2-0.7,0.5-1c0.3-0.3,0.7-0.5,1.2-0.7c0.5-0.2,0.9-0.3,1.4-0.3c0.4,0,0.8,0.1,1.1,0.2c0.3,0.2,0.5,0.4,0.6,0.8l7.6,26.1
		l7.5-26.1c0.1-0.4,0.3-0.6,0.6-0.8c0.3-0.2,0.7-0.2,1.1-0.2c0.5,0,0.9,0.1,1.4,0.3c0.5,0.2,0.8,0.4,1.2,0.7c0.3,0.3,0.5,0.6,0.5,1
		c0,0.1,0,0.1,0,0.2c0,0.1,0,0.1,0,0.2l-9.1,29.7c-0.2,0.6-0.6,1-1.2,1.2C153.8,47.8,153.2,48,152.4,48z"/>
	<path class="st0" d="M170.2,20.5c-0.8,0-1.5-0.3-2-0.8c-0.6-0.5-0.8-1.1-0.8-1.7c0-0.7,0.3-1.3,0.8-1.8c0.5-0.5,1.2-0.7,2-0.7
		c0.8,0,1.4,0.2,1.9,0.7c0.5,0.5,0.8,1.1,0.8,1.8c0,0.6-0.3,1.2-0.8,1.7C171.6,20.3,170.9,20.5,170.2,20.5z M170.2,47.7
		c-0.7,0-1.3-0.2-1.7-0.5c-0.4-0.3-0.7-0.7-0.7-1.1V27.5c0-0.5,0.2-0.8,0.7-1.1c0.4-0.3,1-0.4,1.7-0.4c0.7,0,1.2,0.1,1.7,0.4
		c0.5,0.3,0.7,0.7,0.7,1.1v18.6c0,0.4-0.2,0.8-0.7,1.1C171.4,47.5,170.8,47.7,170.2,47.7z"/>
	<path class="st0" d="M180,47.7c-0.7,0-1.3-0.2-1.7-0.5c-0.4-0.3-0.7-0.7-0.7-1.1V27.5c0-0.5,0.2-0.8,0.7-1.1c0.4-0.3,1-0.4,1.7-0.4
		c0.6,0,1.1,0.1,1.5,0.4c0.4,0.3,0.6,0.7,0.6,1.1v1.6c0.5-0.9,1.3-1.7,2.3-2.4c1-0.7,2.3-1.1,3.8-1.1c1.4,0,2.6,0.4,3.6,1.3
		c1.1,0.9,1.8,2,2.4,3.3c0.8-1.6,1.8-2.7,3.1-3.5c1.3-0.7,2.5-1.1,3.8-1.1c1.4,0,2.7,0.4,3.9,1.1c1.2,0.7,2.2,1.7,3,3.1
		c0.8,1.3,1.1,3,1.1,4.9v11.4c0,0.4-0.2,0.8-0.7,1.1c-0.5,0.3-1,0.5-1.7,0.5c-0.6,0-1.2-0.2-1.7-0.5c-0.5-0.3-0.7-0.7-0.7-1.1V34.7
		c0-1-0.2-1.9-0.6-2.6c-0.4-0.7-0.9-1.3-1.6-1.6c-0.7-0.4-1.3-0.5-2-0.5c-0.7,0-1.4,0.2-2.1,0.6c-0.6,0.4-1.2,0.9-1.6,1.6
		c-0.4,0.7-0.6,1.5-0.6,2.5v11.5c0,0.6-0.3,0.9-0.8,1.2c-0.5,0.2-1.1,0.4-1.7,0.4c-0.5,0-1.1-0.1-1.6-0.4s-0.8-0.6-0.8-1.2V34.7
		c0-1-0.2-1.8-0.6-2.5c-0.4-0.7-0.9-1.2-1.6-1.6c-0.6-0.4-1.3-0.6-2.1-0.6c-0.7,0-1.4,0.2-2,0.5c-0.7,0.4-1.2,0.9-1.6,1.6
		c-0.4,0.7-0.6,1.6-0.6,2.6v11.4c0,0.4-0.2,0.8-0.7,1.1C181.2,47.5,180.6,47.7,180,47.7z"/>
</g>
</svg>
