<?xml version="1.0" encoding="utf-8"?>
<!-- Generator: Adobe Illustrator 24.0.0, SVG Export Plug-In . SVG Version: 6.00 Build 0)  -->
<svg version="1.1" id="Capa_1" xmlns="http://www.w3.org/2000/svg" xmlns:xlink="http://www.w3.org/1999/xlink" x="0px" y="0px"
	 viewBox="0 0 512 512" style="enable-background:new 0 0 512 512;" xml:space="preserve">
<style type="text/css">
	.st0{fill:#1C3AA9;}
	.st1{fill:#4285F4;}
	.st2{fill:#ABABAB;}
</style>
<g>
	<path class="st0" d="M482.7,255.7c0-3.3-0.1-6.5-0.2-9.7V62.5l-50.7,50.7C390.2,62.4,327.1,30,256.3,30
		c-73.6,0-139,35.1-180.3,89.5l83.1,84c8.1-15.1,19.7-28,33.7-37.8c14.5-11.3,35.1-20.6,63.5-20.6c3.4,0,6.1,0.4,8,1.2
		c35.2,2.8,65.8,22.2,83.8,50.5l-58.8,58.8C363.8,255.3,448,255.2,482.7,255.7"/>
	<path class="st1" d="M255,30c-3.3,0-6.5,0.1-9.7,0.2H61.9L112.6,81c-50.8,41.5-83.3,104.6-83.3,175.4c0,73.6,35.1,139,89.5,180.3
		l84-83.1c-15.1-8.1-28-19.7-37.8-33.7c-11.3-14.5-20.6-35.1-20.6-63.5c0-3.4,0.4-6.1,1.2-8c2.8-35.2,22.2-65.8,50.5-83.8l58.8,58.8
		C254.7,148.8,254.5,64.6,255,30"/>
	<path class="st2" d="M29.3,256.3c0,3.3,0.1,6.5,0.2,9.7v183.4l50.7-50.7c41.5,50.8,104.6,83.3,175.4,83.3
		c73.6,0,139-35.1,180.3-89.5l-83.1-84c-8.1,15.1-19.7,28-33.7,37.8c-14.5,11.3-35.1,20.6-63.5,20.6c-3.4,0-6.1-0.4-8-1.2
		c-35.2-2.8-65.8-22.2-83.8-50.5l58.8-58.8C148.2,256.7,64,256.8,29.3,256.3"/>
</g>
</svg>
