<?xml version="1.0" encoding="utf-8"?>
<!-- Generator: Adobe Illustrator 24.0.0, SVG Export Plug-In . SVG Version: 6.00 Build 0)  -->
<svg version="1.1" id="Capa_1" xmlns="http://www.w3.org/2000/svg" xmlns:xlink="http://www.w3.org/1999/xlink" x="0px" y="0px"
	 viewBox="0 0 512 512" style="enable-background:new 0 0 512 512;" xml:space="preserve">
<style type="text/css">
	.st0{fill:#3157DC;}
	.st1{fill:#ECF0F1;}
	.st2{fill:#BDC3C7;}
	.st3{fill:#ADACA7;}
	.st4{fill:#404242;}
	.st5{fill:#565959;}
	.st6{fill:#4B88D5;}
	.st7{fill:#6AA2FF;}
	.st8{fill:#FFFFFF;}
	.st9{fill:#666666;}
	.st10{fill:#546A79;}
</style>
<g>
	<circle class="st0" cx="267" cy="256" r="245"/>
	<path class="st0" d="M357.4,214.2h-19.8c-2.8,0-5,2.3-5,5v14.3h19.8v-14.3C352.4,216.4,354.7,214.2,357.4,214.2z"/>
</g>
<g>
	<g>
		<path class="st1" d="M265.8,410.7l-70.5,25.1l-2.7,9.3c-3.8,13.3-18.2,24.2-32,24.2v6.3h146.2L265.8,410.7z"/>
		<path class="st2" d="M293.6,445.1l-9.9-34.5l-40.6-25.1l-40.6,25.1l-7.2,25.1h70.5l2.7,9.3c3.8,13.3,18.2,24.2,32,24.2l12.6,6.3
			l12.6-6.3C311.9,469.3,297.4,458.4,293.6,445.1z"/>
		<path class="st3" d="M401.1,410.7h25.1c13.8,0,25.1-11.3,25.1-25.1v-50.3L401.1,285V410.7z"/>
		<path class="st1" d="M35,385.5c0,13.8,11.3,25.1,25.1,25.1h340.9c13.8,0,25.1-11.3,25.1-25.1V234.8L35,335.3V385.5z"/>
		<path class="st4" d="M426.2,84h-25.1l25.1,251.3h25.1V109.1C451.3,95.3,440,84,426.2,84z"/>
		<path class="st5" d="M426.2,109.1c0-13.8-11.3-25.1-25.1-25.1H60.2C46.3,84,35,95.3,35,109.1v226.2h391.2v-25.1l-183-100.5
			L426.2,109.1z"/>
		<path class="st6" d="M426.2,109.1l-25.1,0c0,0-157.9,100.5-157.9,100.5s157.9,100.5,157.9,100.5l25.1,0
			C426.2,310.1,426.2,109.1,426.2,109.1L426.2,109.1z"/>
		<path class="st7" d="M401.1,109.1l-340.8,0c0,0,0,201-0.1,201c0,0,340.9,0,340.9,0C401.1,310.1,401,109.1,401.1,109.1L401.1,109.1
			z"/>
		<circle class="st8" cx="243.2" cy="373" r="12.6"/>
		<path class="st2" d="M373,481.9H113.3c-3.5,0-6.3-2.8-6.3-6.3c0-3.5,2.8-6.3,6.3-6.3H373c3.5,0,6.3,2.8,6.3,6.3
			C379.3,479,376.5,481.9,373,481.9z"/>
	</g>
	<g>
		<path class="st1" d="M496.3,482.2H340.9c-8.6,0-15.7-7.1-15.7-15.7V238.2c0-8.6,7.1-15.7,15.7-15.7h155.4
			c8.6,0,15.7,7.1,15.7,15.7v228.3C512,475.1,504.9,482.2,496.3,482.2z"/>
		<path class="st1" d="M339,466.5V238.2c0-8.6,7.1-15.7,15.7-15.7h-13.8c-8.6,0-15.7,7.1-15.7,15.7v228.3c0,8.6,7.1,15.7,15.7,15.7
			h13.8C346,482.2,339,475.1,339,466.5z"/>
		<path class="st7" d="M494.5,245.5H342.7c-2,0-3.7,1.7-3.7,3.7v195.4c0,2,1.7,3.7,3.7,3.7h151.9c2,0,3.7-1.7,3.7-3.7V249.2
			C498.2,247.1,496.6,245.5,494.5,245.5z"/>
		<path class="st7" d="M354.7,444.6V249.2c0-2,1.7-3.7,3.7-3.7h-15.7c-2,0-3.7,1.7-3.7,3.7v195.4c0,2,1.7,3.7,3.7,3.7h15.7
			C356.3,448.3,354.7,446.6,354.7,444.6z"/>
		<g>
			<path class="st2" d="M418.6,476.6c-6.2,0-11.2-5-11.2-11.2s5-11.2,11.2-11.2c6.2,0,11.2,5,11.2,11.2S424.8,476.6,418.6,476.6z
				 M418.6,462c-1.9,0-3.4,1.5-3.4,3.4c0,1.9,1.5,3.4,3.4,3.4c1.9,0,3.4-1.5,3.4-3.4C422,463.5,420.5,462,418.6,462z"/>
		</g>
		<path class="st9" d="M418.6,238.4c-0.3,0-0.5,0-0.8-0.1c-0.3,0-0.5-0.1-0.7-0.2c-0.2-0.1-0.5-0.2-0.7-0.4
			c-0.2-0.1-0.4-0.3-0.6-0.5c-0.2-0.2-0.3-0.4-0.5-0.6c-0.1-0.2-0.3-0.4-0.4-0.7c-0.1-0.2-0.2-0.5-0.2-0.7c-0.1-0.3-0.1-0.5-0.1-0.8
			s0-0.5,0.1-0.8c0.1-0.2,0.1-0.5,0.2-0.7s0.2-0.5,0.4-0.7c0.1-0.2,0.3-0.4,0.5-0.6c0.2-0.2,0.4-0.3,0.6-0.5
			c0.2-0.1,0.4-0.3,0.7-0.4c0.2-0.1,0.5-0.2,0.7-0.2c1.3-0.3,2.6,0.2,3.5,1.1c0.2,0.2,0.3,0.4,0.5,0.6c0.1,0.2,0.3,0.4,0.4,0.7
			c0.1,0.2,0.2,0.5,0.2,0.7c0,0.3,0.1,0.5,0.1,0.8s0,0.5-0.1,0.8c-0.1,0.2-0.1,0.5-0.2,0.7c-0.1,0.2-0.2,0.5-0.4,0.7
			c-0.1,0.2-0.3,0.4-0.5,0.6C420.7,238,419.6,238.4,418.6,238.4z"/>
		<path class="st7" d="M494.5,245.5H342.7c-2,0-3.7,1.7-3.7,3.7v10.5h159.2v-10.5C498.2,247.1,496.6,245.5,494.5,245.5z"/>
	</g>
	<g>
		<path class="st1" d="M107.7,482.2H11c-6.1,0-11-4.9-11-11V278c0-6.1,4.9-11,11-11h96.7c6.1,0,11,4.9,11,11v193.2
			C118.7,477.2,113.8,482.2,107.7,482.2"/>
		<polygon class="st7" points="0,452.5 118.7,452.5 118.7,289.3 0,289.3 		"/>
		<g>
			<path class="st10" d="M74.2,281.9H55.6c-2.1,0-3.7-1.7-3.7-3.7c0-2.1,1.7-3.7,3.7-3.7h18.5c2.1,0,3.7,1.7,3.7,3.7
				C77.9,280.2,76.2,281.9,74.2,281.9"/>
			<path class="st10" d="M44.5,281.9h-3.7c-2.1,0-3.7-1.7-3.7-3.7c0-2.1,1.7-3.7,3.7-3.7h3.7c2.1,0,3.7,1.7,3.7,3.7
				C48.2,280.2,46.6,281.9,44.5,281.9"/>
		</g>
		<g>
			<path class="st2" d="M70.5,467.3c0,6.1-5,11.1-11.1,11.1c-6.1,0-11.1-5-11.1-11.1c0-6.1,5-11.1,11.1-11.1
				C65.5,456.2,70.5,461.2,70.5,467.3"/>
		</g>
	</g>
	<g>
	</g>
</g>
<path class="st8" d="M246.7,161.2l-88,80.8c-4.3,4-10.1,4.7-12.9,1.7s-1.5-8.7,2.8-12.7l88-80.8c4.3-4,10.1-4.7,12.9-1.7
	C252.3,151.5,251,157.2,246.7,161.2z"/>
<path class="st8" d="M298,165.3L179.5,274c-5.8,5.4-12.8,7.2-15.6,4.2c-2.8-3-0.3-9.8,5.5-15.2L288,154.3c5.8-5.4,12.8-7.2,15.6-4.2
	S303.9,159.9,298,165.3z"/>
<path class="st8" d="M323.8,200.7l-88,80.8c-4.3,4-10.1,4.7-12.9,1.7c-2.8-3-1.5-8.7,2.8-12.7l88-80.8c4.3-4,10.1-4.7,12.9-1.7
	S328.1,196.7,323.8,200.7z"/>
<path class="st8" d="M70.6,349.9L18,398.1c-2.6,2.4-6.3,2.6-8.2,0.5s-1.4-5.8,1.2-8.1l52.6-48.3c2.6-2.4,6.3-2.6,8.2-0.5
	C73.7,343.8,73.2,347.5,70.6,349.9z"/>
<path class="st8" d="M97.7,358.2l-49.3,45.3c-2.4,2.2-6,2.3-7.9,0.2c-1.9-2.1-1.6-5.6,0.9-7.9l49.3-45.3c2.4-2.2,6-2.3,7.9-0.2
	C100.5,352.5,100.1,356,97.7,358.2z"/>
<path class="st8" d="M444.9,311.8l-76.3,70c-3.8,3.4-8.5,4.3-10.7,2c-2.2-2.4-0.9-7.1,2.9-10.5l76.3-70c3.8-3.4,8.5-4.3,10.7-2
	C449.9,303.7,448.6,308.4,444.9,311.8z"/>
<path class="st8" d="M478.5,317.8l-71.6,65.7c-3.5,3.2-8.1,3.9-10.3,1.6c-2.2-2.4-1.1-6.9,2.5-10.1l71.6-65.7
	c3.5-3.2,8.1-3.9,10.3-1.6S482,314.6,478.5,317.8z"/>
</svg>
