<?xml version="1.0" encoding="utf-8"?>
<!-- Generator: Adobe Illustrator 24.0.0, SVG Export Plug-In . SVG Version: 6.00 Build 0)  -->
<svg version="1.1" id="Capa_1" xmlns="http://www.w3.org/2000/svg" xmlns:xlink="http://www.w3.org/1999/xlink" x="0px" y="0px"
	 viewBox="0 0 512 512" style="enable-background:new 0 0 512 512;" xml:space="preserve">
<style type="text/css">
	.st0{fill:#3157DC;}
	.st1{fill:#FFFFFF;}
</style>
<g>
	<circle class="st0" cx="256" cy="256" r="245"/>
	<path class="st0" d="M346.4,214.2h-19.8c-2.8,0-5,2.3-5,5v14.3h19.8v-14.3C341.4,216.4,343.7,214.2,346.4,214.2z"/>
</g>
<g>
	<g>
		<g>
			<path class="st1" d="M431.1,261.4c1.8-3.4,1.8-7.5,0-10.9c-33.7-62.1-99.5-104.2-175.1-104.2S114.6,188.5,80.9,250.6
				c-1.8,3.4-1.8,7.5,0,10.9c33.7,62.1,99.5,104.2,175.1,104.2S397.4,323.5,431.1,261.4z M256,340.1c-46.5,0-84.1-37.7-84.1-84.1
				s37.7-84.1,84.1-84.1s84.1,37.7,84.1,84.1S302.5,340.1,256,340.1z"/>
			<path class="st1" d="M256,213.1c-3.5,0-7,0.4-10.3,1.2c3.4,3.9,5.4,9,5.4,14.5c0,12.3-10,22.2-22.2,22.2c-5.6,0-10.6-2-14.5-5.4
				c-0.8,3.3-1.2,6.7-1.2,10.3c0,23.7,19.2,42.9,42.9,42.9s42.9-19.2,42.9-42.9C298.9,232.3,279.7,213.1,256,213.1z"/>
		</g>
	</g>
</g>
</svg>
