<?xml version="1.0"?>
<svg xmlns="http://www.w3.org/2000/svg" xmlns:xlink="http://www.w3.org/1999/xlink" version="1.1" id="Capa_1" x="0px" y="0px" viewBox="0 0 512 512" style="enable-background:new 0 0 512 512;" xml:space="preserve" width="512px" height="512px" class=""><g><circle style="fill:#3157DC" cx="256" cy="256" r="245" data-original="#52BBEF" class="" data-old_color="#52BBEF"/><g>
	<path style="fill:#7DA1FF" d="M147.807,129.727H36.037c-4.142,0-7.5-3.357-7.5-7.5c0-4.142,3.358-7.5,7.5-7.5h111.77   c4.142,0,7.5,3.358,7.5,7.5C155.307,126.369,151.949,129.727,147.807,129.727z" data-original="#445EA0" class="active-path" data-old_color="#445EA0"/>
	<path style="fill:#7DA1FF" d="M147.807,84.338H69.331c-4.142,0-7.5-3.358-7.5-7.5s3.358-7.5,7.5-7.5h78.476   c4.142,0,7.5,3.358,7.5,7.5C155.307,80.98,151.949,84.338,147.807,84.338z" data-original="#445EA0" class="active-path" data-old_color="#445EA0"/>
	<path style="fill:#7DA1FF" d="M147.807,175.116H7.5c-4.142,0-7.5-3.358-7.5-7.5s3.358-7.5,7.5-7.5h140.307   c4.142,0,7.5,3.358,7.5,7.5S151.949,175.116,147.807,175.116z" data-original="#445EA0" class="active-path" data-old_color="#445EA0"/>
	<path style="fill:#7DA1FF" d="M147.807,220.506H62.196c-4.142,0-7.5-3.358-7.5-7.5s3.358-7.5,7.5-7.5h85.611   c4.142,0,7.5,3.358,7.5,7.5S151.949,220.506,147.807,220.506z" data-original="#445EA0" class="active-path" data-old_color="#445EA0"/>
	<path style="fill:#7DA1FF" d="M442.671,442.662h-78.477c-4.143,0-7.5-3.358-7.5-7.5s3.357-7.5,7.5-7.5h78.477   c4.143,0,7.5,3.358,7.5,7.5S446.814,442.662,442.671,442.662z" data-original="#445EA0" class="active-path" data-old_color="#445EA0"/>
	<path style="fill:#7DA1FF" d="M475.965,397.273H364.194c-4.143,0-7.5-3.358-7.5-7.5s3.357-7.5,7.5-7.5h111.771   c4.143,0,7.5,3.358,7.5,7.5S480.107,397.273,475.965,397.273z" data-original="#445EA0" class="active-path" data-old_color="#445EA0"/>
	<path style="fill:#7DA1FF" d="M504.5,351.884H364.194c-4.143,0-7.5-3.358-7.5-7.5s3.357-7.5,7.5-7.5H504.5   c4.143,0,7.5,3.358,7.5,7.5S508.643,351.884,504.5,351.884z" data-original="#445EA0" class="active-path" data-old_color="#445EA0"/>
	<path style="fill:#7DA1FF" d="M449.805,306.494h-85.61c-4.143,0-7.5-3.358-7.5-7.5s3.357-7.5,7.5-7.5h85.61   c4.143,0,7.5,3.358,7.5,7.5S453.947,306.494,449.805,306.494z" data-original="#445EA0" class="active-path" data-old_color="#445EA0"/>
</g><path style="fill:#FF9518;" d="M463.496,53.118H195.963c-3.27,0-5.945,2.688-5.945,5.973v171.661c0,3.285,2.676,5.973,5.945,5.973  h267.533c3.271,0,5.945-2.688,5.945-5.973V59.091C469.441,55.806,466.767,53.118,463.496,53.118z" data-original="#FF9518" class=""/><g>
	<path style="fill:#DB722C;" d="M191.668,55.419c-0.072,0.093-0.148,0.182-0.216,0.279l93.017,86.914l9.183-8.372L191.668,55.419z" data-original="#DB722C"/>
	<path style="fill:#DB722C;" d="M365.808,134.241l9.183,8.373l93.017-86.916c-0.068-0.098-0.143-0.186-0.216-0.279L365.808,134.241z   " data-original="#DB722C"/>
</g><path style="fill:#FFAF10;" d="M364.307,132.873L333.221,156.9c-0.893,0.689-2.164,1.085-3.489,1.085s-2.597-0.395-3.489-1.085  l-31.09-24.029l-105.135,95.856v2.025c0,3.285,2.676,5.973,5.945,5.973h267.533c3.271,0,5.945-2.688,5.945-5.973v-2.026  L364.307,132.873z" data-original="#FFAF10" class=""/><path style="fill:#DB722C;" d="M214.018,230.752v-2.025l94.124-85.817l-12.989-10.039l-105.135,95.856v2.025  c0,3.285,2.676,5.973,5.945,5.973h24C216.693,236.725,214.018,234.037,214.018,230.752z" data-original="#DB722C"/><path style="fill:#FFD00D;" d="M463.496,53.118H195.963c-1.81,0-3.418,0.841-4.511,2.134l133.567,103.23  c2.592,2.003,6.832,2.003,9.424,0l133.563-103.23C466.915,53.959,465.307,53.118,463.496,53.118z" data-original="#FFD00D" class=""/><path style="fill:#FF9518;" d="M326.17,275.274H58.635c-3.27,0-5.945,2.688-5.945,5.973V392.75  c17.544,26.032,39.956,48.509,65.93,66.131h207.55c3.27,0,5.945-2.688,5.945-5.973V281.247  C332.115,277.962,329.44,275.274,326.17,275.274z" data-original="#FF9518" class=""/><path style="fill:#DB722C;" d="M330.506,277.542L197.117,380.64c-2.592,2.003-6.833,2.003-9.424,0L54.298,277.542  c-0.057,0.073-0.119,0.141-0.173,0.216l133.568,120.136c2.592,2.331,6.832,2.331,9.424,0l133.562-120.136  C330.624,277.683,330.563,277.615,330.506,277.542z" data-original="#DB722C"/><path style="fill:#FFAF10;" d="M226.98,355.03l-31.086,24.027c-0.892,0.69-2.164,1.085-3.489,1.085s-2.597-0.395-3.489-1.085  l-31.09-24.029l-78.048,71.159c11.767,12.182,24.779,23.153,38.843,32.694h207.55c3.27,0,5.945-2.688,5.945-5.973v-2.026  L226.98,355.03z" data-original="#FFAF10" class=""/><path style="fill:#DB722C;" d="M157.825,355.028l-78.048,71.159c3.854,3.99,7.854,7.835,11.969,11.558l79.418-72.408  L157.825,355.028z" data-original="#DB722C"/><polygon style="fill:#EBAA48" points="332.115,451.845 332.115,450.883 331.568,450.385 " data-original="#EBAA48" class=""/><path style="fill:#FFD00D;" d="M326.17,275.274H58.635c-1.81,0-3.417,0.842-4.511,2.134L187.692,380.64  c2.592,2.003,6.832,2.003,9.424,0l133.562-103.231C329.588,276.116,327.978,275.274,326.17,275.274z" data-original="#FFD00D" class=""/></g> </svg>
